<?xml version="1.0" standalone="no"?>
<svg xmlns="http://www.w3.org/2000/svg" width="100%" height="100%"
      viewBox="0 0 1440 320">
  <path fill="#ffbb33" fill-opacity="3"
        d="M0,256L21.8,256C43.6,256,87,256,131,234.7C174.5,213,218,171,262,154.7C305.5,139,349,149,393,165.3C436.4,181,480,203,524,192C567.3,181,611,139,655,138.7C698.2,139,742,181,785,213.3C829.1,245,873,267,916,261.3C960,256,1004,224,1047,197.3C1090.9,171,1135,149,1178,149.3C1221.8,149,1265,171,1309,186.7C1352.7,203,1396,213,1418,218.7L1440,224L1440,0L1418.2,0C1396.4,0,1353,0,1309,0C1265.5,0,1222,0,1178,0C1134.5,0,1091,0,1047,0C1003.6,0,960,0,916,0C872.7,0,829,0,785,0C741.8,0,698,0,655,0C610.9,0,567,0,524,0C480,0,436,0,393,0C349.1,0,305,0,262,0C218.2,0,175,0,131,0C87.3,0,44,0,22,0L0,0Z"></path>
</svg>
